<?xml version="1.0" encoding="utf-8"?>
<!-- Generated by IcoMoon.io -->
<!DOCTYPE svg PUBLIC "-//W3C//DTD SVG 1.1//EN" "http://www.w3.org/Graphics/SVG/1.1/DTD/svg11.dtd">

<svg version="1.1" xmlns="http://www.w3.org/2000/svg" xmlns:xlink="http://www.w3.org/1999/xlink" width="200" height="80" viewBox="0 0 200 80">
<defs>

<g id="icon-trash">
	<path class="path1" d="M0 3.75v-0.5q0-0.109 0.070-0.18t0.18-0.070h2.414l0.547-1.305q0.117-0.289 0.422-0.492t0.617-0.203h2.5q0.312 0 0.617 0.203t0.422 0.492l0.547 1.305h2.414q0.109 0 0.18 0.070t0.070 0.18v0.5q0 0.109-0.070 0.18t-0.18 0.070h-0.75v7.406q0 0.648-0.367 1.121t-0.883 0.473h-6.5q-0.516 0-0.883-0.457t-0.367-1.105v-7.438h-0.75q-0.109 0-0.18-0.070t-0.070-0.18zM2 11.406q0 0.172 0.055 0.316t0.113 0.211 0.082 0.066h6.5q0.023 0 0.082-0.066t0.113-0.211 0.055-0.316v-7.406h-7v7.406zM3 10.25v-4.5q0-0.109 0.070-0.18t0.18-0.070h0.5q0.109 0 0.18 0.070t0.070 0.18v4.5q0 0.109-0.070 0.18t-0.18 0.070h-0.5q-0.109 0-0.18-0.070t-0.070-0.18zM3.75 3h3.5l-0.375-0.914q-0.055-0.070-0.133-0.086h-2.477q-0.078 0.016-0.133 0.086zM5 10.25v-4.5q0-0.109 0.070-0.18t0.18-0.070h0.5q0.109 0 0.18 0.070t0.070 0.18v4.5q0 0.109-0.070 0.18t-0.18 0.070h-0.5q-0.109 0-0.18-0.070t-0.070-0.18zM7 10.25v-4.5q0-0.109 0.070-0.18t0.18-0.070h0.5q0.109 0 0.18 0.070t0.070 0.18v4.5q0 0.109-0.070 0.18t-0.18 0.070h-0.5q-0.109 0-0.18-0.070t-0.070-0.18z"></path>
</g>
<g id="icon-external-link">
	<path class="path1" d="M0 9.75v-6.5q0-0.93 0.66-1.59t1.59-0.66h5.5q0.109 0 0.18 0.070t0.070 0.18v0.5q0 0.109-0.070 0.18t-0.18 0.070h-5.5q-0.516 0-0.883 0.367t-0.367 0.883v6.5q0 0.516 0.367 0.883t0.883 0.367h6.5q0.516 0 0.883-0.367t0.367-0.883v-2.5q0-0.109 0.070-0.18t0.18-0.070h0.5q0.109 0 0.18 0.070t0.070 0.18v2.5q0 0.93-0.66 1.59t-1.59 0.66h-6.5q-0.93 0-1.59-0.66t-0.66-1.59zM5.352 7.5q0-0.102 0.078-0.18l5.094-5.094-1.375-1.375q-0.148-0.148-0.148-0.352t0.148-0.352 0.352-0.148h4q0.203 0 0.352 0.148t0.148 0.352v4q0 0.203-0.148 0.352t-0.352 0.148-0.352-0.148l-1.375-1.375-5.094 5.094q-0.078 0.078-0.18 0.078t-0.18-0.078l-0.891-0.891q-0.078-0.078-0.078-0.18z"></path>
</g>
<g id="icon-rss">
	<path class="path1" d="M0 10.5q0-0.625 0.438-1.062t1.062-0.438 1.062 0.438 0.438 1.062-0.438 1.062-1.062 0.438-1.062-0.438-0.438-1.062zM0 6.555v-1.055q0-0.227 0.164-0.367 0.133-0.133 0.336-0.133h0.039q1.25 0.102 2.391 0.629t2.023 1.418q0.891 0.883 1.418 2.023t0.629 2.391q0.016 0.219-0.133 0.375-0.141 0.164-0.367 0.164h-1.055q-0.195 0-0.336-0.129t-0.156-0.324q-0.172-1.789-1.441-3.059t-3.059-1.441q-0.195-0.016-0.324-0.156t-0.129-0.336zM0 2.617v-1.117q0-0.219 0.156-0.359 0.141-0.141 0.344-0.141h0.023q2.047 0.102 3.918 0.937t3.324 2.297q1.461 1.453 2.297 3.324t0.937 3.918q0.016 0.211-0.141 0.367-0.141 0.156-0.359 0.156h-1.117q-0.203 0-0.348-0.137t-0.152-0.332q-0.094-1.68-0.789-3.191t-1.809-2.625-2.625-1.809-3.191-0.797q-0.195-0.008-0.332-0.152t-0.137-0.34z"></path>
</g>
<g id="icon-chain">
	<path class="path1" d="M0.125 3.5q0-0.937 0.664-1.586l1.148-1.141q0.648-0.648 1.586-0.648 0.945 0 1.594 0.664l1.609 1.617q0.648 0.648 0.648 1.586 0 0.961-0.688 1.633l0.688 0.688q0.672-0.688 1.625-0.688 0.937 0 1.594 0.656l1.625 1.625q0.656 0.656 0.656 1.594t-0.664 1.586l-1.148 1.141q-0.648 0.648-1.586 0.648-0.945 0-1.594-0.664l-1.609-1.617q-0.648-0.648-0.648-1.586 0-0.961 0.688-1.633l-0.688-0.688q-0.672 0.688-1.625 0.688-0.937 0-1.594-0.656l-1.625-1.625q-0.656-0.656-0.656-1.594zM1.625 3.5q0 0.312 0.219 0.531l1.625 1.625q0.211 0.211 0.531 0.211 0.328 0 0.563-0.242-0.023-0.023-0.148-0.145t-0.168-0.168-0.117-0.148-0.102-0.199-0.027-0.215q0-0.312 0.219-0.531t0.531-0.219q0.117 0 0.215 0.027t0.199 0.102 0.148 0.117 0.168 0.168 0.145 0.148q0.258-0.242 0.258-0.57 0-0.312-0.219-0.531l-1.609-1.617q-0.219-0.219-0.531-0.219-0.305 0-0.531 0.211l-1.148 1.141q-0.219 0.219-0.219 0.523zM7.117 9.008q0 0.312 0.219 0.531l1.609 1.617q0.211 0.211 0.531 0.211 0.312 0 0.531-0.203l1.148-1.141q0.219-0.219 0.219-0.523 0-0.312-0.219-0.531l-1.625-1.625q-0.219-0.219-0.531-0.219-0.328 0-0.563 0.25 0.023 0.023 0.148 0.145t0.168 0.168 0.117 0.148 0.102 0.199 0.027 0.215q0 0.312-0.219 0.531t-0.531 0.219q-0.117 0-0.215-0.027t-0.199-0.102-0.148-0.117-0.168-0.168-0.145-0.148q-0.258 0.242-0.258 0.57z"></path>
</g>

<g id="icon-lock">
	<path class="path1" d="M0 11.25v-4.5q0-0.312 0.219-0.531t0.531-0.219h0.25v-1.5q0-1.438 1.031-2.469t2.469-1.031 2.469 1.031 1.031 2.469v1.5h0.25q0.312 0 0.531 0.219t0.219 0.531v4.5q0 0.312-0.219 0.531t-0.531 0.219h-7.5q-0.312 0-0.531-0.219t-0.219-0.531zM2.5 6h4v-1.5q0-0.828-0.586-1.414t-1.414-0.586-1.414 0.586-0.586 1.414v1.5z"></path>
</g>
<g id="icon-key">
	<path class="path1" d="M0 6.125q0-1.25 0.742-2.445t1.937-1.937 2.445-0.742q1.273 0 2.074 0.801t0.801 2.074q0 1.477-1.023 2.852l2.773 2.773 0.75-0.75q-0.023-0.023-0.203-0.191t-0.312-0.301-0.258-0.285-0.125-0.223q0-0.133 0.383-0.516t0.516-0.383q0.102 0 0.18 0.078 0.047 0.047 0.359 0.348t0.641 0.621 0.676 0.672 0.57 0.609 0.223 0.32q0 0.133-0.383 0.516t-0.516 0.383q-0.070 0-0.223-0.125t-0.285-0.258-0.301-0.312-0.191-0.203l-0.75 0.75 1.719 1.719q0.219 0.219 0.219 0.531 0 0.328-0.305 0.633t-0.633 0.305q-0.312 0-0.531-0.219l-5.242-5.242q-1.375 1.023-2.852 1.023-1.273 0-2.074-0.801t-0.801-2.074zM1.5 6q0 0.625 0.438 1.062t1.062 0.438 1.062-0.438 0.438-1.062q0-0.328-0.148-0.648 0.32 0.148 0.648 0.148 0.625 0 1.062-0.438t0.438-1.062-0.438-1.062-1.062-0.438-1.062 0.438-0.438 1.062q0 0.328 0.148 0.648-0.32-0.148-0.648-0.148-0.625 0-1.062 0.438t-0.438 1.062z"></path>
</g>
<g id="icon-unlock">
	<path class="path1" d="M0 11.25v-4.5q0-0.312 0.219-0.531t0.531-0.219h5.25v-1.5q0-1.445 1.027-2.473t2.473-1.027 2.473 1.027 1.027 2.473v2q0 0.203-0.148 0.352t-0.352 0.148h-0.5q-0.203 0-0.352-0.148t-0.148-0.352v-2q0-0.828-0.586-1.414t-1.414-0.586-1.414 0.586-0.586 1.414v1.5h0.75q0.312 0 0.531 0.219t0.219 0.531v4.5q0 0.312-0.219 0.531t-0.531 0.219h-7.5q-0.312 0-0.531-0.219t-0.219-0.531z"></path>
</g>

<g id="icon-check">
	<path class="path1" d="M0.945 7.25q0-0.312 0.219-0.531l1.062-1.062q0.219-0.219 0.531-0.219t0.531 0.219l2.297 2.305 5.125-5.133q0.219-0.219 0.531-0.219t0.531 0.219l1.062 1.062q0.219 0.219 0.219 0.531t-0.219 0.531l-6.719 6.719q-0.219 0.219-0.531 0.219t-0.531-0.219l-3.891-3.891q-0.219-0.219-0.219-0.531z"></path>
</g>

<g id="icon-star">
	<path class="path1" d="M0 5.055q0-0.289 0.438-0.359l3.922-0.57 1.758-3.555q0.148-0.32 0.383-0.32t0.383 0.32l1.758 3.555 3.922 0.57q0.438 0.070 0.438 0.359 0 0.172-0.203 0.375l-2.836 2.766 0.672 3.906q0.008 0.055 0.008 0.156 0 0.164-0.082 0.277t-0.238 0.113q-0.148 0-0.312-0.094l-3.508-1.844-3.508 1.844q-0.172 0.094-0.312 0.094-0.164 0-0.246-0.113t-0.082-0.277q0-0.047 0.016-0.156l0.672-3.906-2.844-2.766q-0.195-0.211-0.195-0.375z"></path>
</g>
<g id="icon-star-o">
	<path class="path1" d="M0 5.055q0-0.289 0.438-0.359l3.922-0.57 1.758-3.555q0.148-0.32 0.383-0.32t0.383 0.32l1.758 3.555 3.922 0.57q0.438 0.070 0.438 0.359 0 0.172-0.203 0.375l-2.836 2.766 0.672 3.906q0.008 0.055 0.008 0.156 0 0.391-0.32 0.391-0.148 0-0.312-0.094l-3.508-1.844-3.508 1.844q-0.172 0.094-0.312 0.094-0.164 0-0.246-0.113t-0.082-0.277q0-0.047 0.016-0.156l0.672-3.906-2.844-2.766q-0.195-0.211-0.195-0.375zM1.727 5.523l2.391 2.32-0.57 3.289 2.953-1.555 2.945 1.555-0.563-3.289 2.391-2.32-3.297-0.484-1.477-2.984-1.477 2.984z"></path>
</g>

<path id="icon-star-large-o" d="M-1,3.7c0-0.3,0.2-0.5,0.7-0.6l6-0.9l2.7-5.5C8.6-3.5,8.8-3.7,9-3.7s0.4,0.2,0.6,0.5l2.7,5.5l6,0.9C18.8,3.2,19,3.4,19,3.7c0,0.2-0.1,0.4-0.3,0.6l-4.4,4.3l1,6c0,0.1,0,0.1,0,0.2c0,0.4-0.2,0.6-0.5,0.6c-0.2,0-0.3,0-0.5-0.1L9,12.4l-5.4,2.8c-0.2,0.1-0.3,0.1-0.5,0.1c-0.2,0-0.3-0.1-0.4-0.2c-0.1-0.1-0.1-0.3-0.1-0.4c0,0,0-0.1,0-0.2l1-6l-4.4-4.3C-0.9,4.1-1,3.9-1,3.7L-1,3.7zM1.7,4.4L5.3,8L4.5,13L9,10.7l4.5,2.4L12.7,8l3.7-3.6l-5.1-0.7L9-0.9L6.7,3.7L1.7,4.4z"/>

<path id="icon-star-large" d="M-1,3.7c0-0.3,0.2-0.5,0.7-0.6l6-0.9l2.7-5.5C8.6-3.5,8.8-3.7,9-3.7s0.4,0.2,0.6,0.5l2.7,5.5l6,0.9C18.8,3.2,19,3.4,19,3.7c0,0.2-0.1,0.4-0.3,0.6l-4.4,4.3l1,6c0,0.1,0,0.1,0,0.2c0,0.2,0,0.3-0.1,0.4c-0.1,0.1-0.2,0.2-0.4,0.2c-0.2,0-0.3,0-0.5-0.1L9,12.4l-5.4,2.8c-0.2,0.1-0.3,0.1-0.5,0.1c-0.2,0-0.3-0.1-0.4-0.2c-0.1-0.1-0.1-0.3-0.1-0.4c0,0,0-0.1,0-0.2l1-6l-4.4-4.3C-0.9,4.1-1,3.9-1,3.7L-1,3.7z"/>

</defs>


<g fill="#ffffff">
	<use xlink:href="#icon-lock" transform="translate(2 1)"></use>
	<use xlink:href="#icon-key" transform="translate(20 -1)"></use>
	<use xlink:href="#icon-unlock" transform="translate(40 1)"></use>	

	<use xlink:href="#icon-rss" transform="translate(61 1)"></use>
	<use xlink:href="#icon-chain" transform="translate(80 0)"></use>
	<use xlink:href="#icon-trash" transform="translate(101 0)"></use>
	<use xlink:href="#icon-external-link" transform="translate(120 0)"></use>
	<use xlink:href="#icon-check" transform="translate(140 0)"></use>
	<use xlink:href="#icon-star" transform="translate(160 0)"></use>
	<use xlink:href="#icon-star-o" transform="translate(180 0)"></use>
</g>

<g fill="#333333">
	<use xlink:href="#icon-lock" transform="translate(2 21)"></use>
	<use xlink:href="#icon-key" transform="translate(20 19)"></use>
	<use xlink:href="#icon-unlock" transform="translate(40 21)"></use>	
	<use xlink:href="#icon-rss" transform="translate(61 21)"></use>
	<use xlink:href="#icon-chain" transform="translate(80 20)"></use>
	<use xlink:href="#icon-trash" transform="translate(101 20)"></use>
	<use xlink:href="#icon-external-link" transform="translate(120 20)"></use>
	<use xlink:href="#icon-check" transform="translate(140 20)"></use>
</g>

<g fill="#9aa0a6">
	<use xlink:href="#icon-star" transform="translate(160 20)"></use>
	<use xlink:href="#icon-star-o" transform="translate(180 20)"></use>
	<use xlink:href="#icon-star-large-o" transform="translate(21 64)"></use>
</g>

<g fill="#ac2f3d">
	<use xlink:href="#icon-lock" transform="translate(2 41)"></use>
</g>
<g fill="#e6ba00">
	<use xlink:href="#icon-key" transform="translate(20 39)"></use>
	
</g>	
<g fill="#3dd237">
	<use xlink:href="#icon-unlock" transform="translate(40 41)"></use>	
</g>
<g fill="#f2cf30">
	<use xlink:href="#icon-star" transform="translate(160 40)"></use>
	<use xlink:href="#icon-star-o" transform="translate(180 40)"></use>
	<use xlink:href="#icon-star-large" transform="translate(1 64)"></use>
</g>

</svg>
