<?xml version="1.0" encoding="utf-8"?>
<!DOCTYPE svg PUBLIC "-//W3C//DTD SVG 1.1//EN" "http://www.w3.org/Graphics/SVG/1.1/DTD/svg11.dtd">
<svg version="1.1" id="logo-container" xmlns="http://www.w3.org/2000/svg" xmlns:xlink="http://www.w3.org/1999/xlink" x="0px" y="0px" width="400" height="100" xml:space="preserve">
	<path id="logotype" fill="#ffffff" d="M266.6,26.5L266.6,26.5L266.6,26.5c-5.9,0-11.1,2.1-15.3,6.2c-4.2,4.1-6.3,9.1-6.3,14.9s2.1,10.8,6.3,14.9
		c4.2,4.1,9.3,6.1,15.3,6.1c5,0,9.5-1.5,13.4-4.5c0.5-0.4,0.8-1,0.9-1.7c0.1-0.7-0.1-1.3-0.5-1.7c-0.3-0.5-0.9-0.9-1.5-1
		c-0.1,0-0.3,0-0.4,0c-0.5,0-1,0.1-1.4,0.4l0,0l0,0c-2.8,2.4-6.5,3.6-10.8,3.6c-4.3,0-8.2-1.6-11.4-4.8c-3.3-3.2-4.9-7-4.9-11.5
		c0-4.6,1.6-8.3,4.9-11.6c3.3-3.2,7.3-4.8,11.9-4.8c3.9,0,7.4,1.2,10.5,3.6c0.4,0.3,0.9,0.5,1.4,0.5c0.1,0,0.2,0,0.3,0
		c0.7-0.1,1.2-0.4,1.6-0.9c0.4-0.5,0.6-1.1,0.5-1.8c-0.1-0.6-0.4-1.2-0.9-1.6l0,0l0,0C276,28.1,271.5,26.5,266.6,26.5L266.6,26.5z
		 M384.3,27.1h-20.4c-0.6,0-1.2,0.2-1.7,0.7c-0.5,0.4-0.7,1-0.7,1.7v36.9c0,0.6,0.2,1.2,0.7,1.6c0.4,0.4,0.9,0.6,1.5,0.7l0.1,0h0.1
		h20.5c0.6,0,1.2-0.2,1.7-0.7c0.5-0.5,0.7-1,0.7-1.7c0-0.7-0.2-1.2-0.7-1.7c-0.5-0.5-1-0.7-1.7-0.7h-18V50.3h15.6
		c0.6,0,1.2-0.2,1.7-0.7c0.5-0.5,0.7-1,0.7-1.7c0-0.6-0.2-1.2-0.7-1.7c-0.5-0.5-1-0.7-1.7-0.7h-15.6V31.9h18c0.6,0,1.2-0.2,1.7-0.7
		c0.5-0.5,0.7-1,0.7-1.7c0-0.7-0.2-1.2-0.7-1.7C385.5,27.3,384.9,27.1,384.3,27.1L384.3,27.1z M341,27.1h-8.8c-0.6,0-1.2,0.2-1.7,0.7
		c-0.5,0.4-0.7,1-0.7,1.7v36.9c0,0.6,0.2,1.2,0.6,1.6c0.4,0.5,1,0.7,1.7,0.7h11.4c3.4,0,6.3-1.2,8.7-3.6c2.4-2.4,3.6-5.3,3.6-8.7
		c0-2.7-0.8-5.1-2.4-7.2c-1.2-1.7-2.8-2.9-4.5-3.8c2-2,3-4.4,3-7.1c0-3.2-1.1-5.9-3.2-8C346.5,28.2,343.9,27.1,341,27.1L341,27.1z
		 M334.6,31.9h6.4c1.7,0,3.1,0.6,4.3,1.8c1.2,1.2,1.8,2.6,1.8,4.3c0,1.7-0.6,3.1-1.8,4.3S342.7,44,341,44h-6.4V31.9L334.6,31.9z
		 M334.6,48.8h8.9c2.1,0,3.8,0.7,5.3,2.2c1.5,1.5,2.2,3.3,2.3,5.3c0,2.1-0.8,3.8-2.3,5.3c-1.5,1.5-3.2,2.2-5.3,2.2h-8.9V48.8
		L334.6,48.8z M319.2,27.1c-0.6,0-1.2,0.2-1.7,0.7c-0.5,0.4-0.7,1-0.7,1.7v22.2c0,3.4-1.2,6.2-3.6,8.6c-2.4,2.4-5.3,3.6-8.7,3.6
		c-3.4,0-6.2-1.2-8.6-3.6c-2.4-2.4-3.6-5.2-3.6-8.6V29.4c0-0.7-0.3-1.2-0.7-1.7c-0.5-0.4-1-0.7-1.7-0.7c-0.6,0-1.2,0.2-1.7,0.7
		c-0.5,0.4-0.7,1-0.7,1.7v22.2c0,4.7,1.7,8.7,5,12c3.3,3.3,7.4,5,12,5c4.7,0,8.7-1.7,12-5c3.3-3.3,5-7.4,5-12V29.4
		c0-0.7-0.3-1.2-0.7-1.7C320.4,27.3,319.8,27.1,319.2,27.1L319.2,27.1z M240.8,27.1h-26.6c-0.6,0-1.2,0.2-1.7,0.7
		c-0.4,0.4-0.7,1-0.7,1.7c0,0.6,0.2,1.2,0.7,1.7c0.4,0.5,1,0.7,1.7,0.7h10.9v34.5c0,0.6,0.2,1.2,0.7,1.7c0.4,0.5,1,0.7,1.7,0.7
		c0.6,0,1.2-0.2,1.7-0.7c0.5-0.5,0.7-1,0.7-1.7V31.9h10.9c0.7,0,1.2-0.3,1.7-0.7c0.4-0.5,0.7-1,0.7-1.7c0-0.6-0.2-1.2-0.7-1.7
		C242,27.3,241.4,27.1,240.8,27.1L240.8,27.1z M166.9,27.1h-20.4c-0.6,0-1.2,0.2-1.7,0.7c-0.5,0.5-0.7,1-0.7,1.7v36.9
		c0,0.6,0.2,1.2,0.7,1.6c0.4,0.4,0.9,0.6,1.5,0.7l0.1,0h0.1h20.5c0.6,0,1.2-0.2,1.7-0.7c0.5-0.5,0.7-1,0.7-1.7c0-0.7-0.2-1.2-0.7-1.7
		c-0.5-0.5-1-0.7-1.7-0.7h-18V50.3h15.6c0.6,0,1.2-0.2,1.7-0.7c0.5-0.5,0.7-1,0.7-1.7c0-0.6-0.2-1.2-0.7-1.7c-0.5-0.5-1-0.7-1.7-0.7
		h-15.6V31.9h18c0.6,0,1.2-0.2,1.7-0.7c0.5-0.5,0.7-1,0.7-1.7c0-0.7-0.2-1.2-0.7-1.7C168.1,27.3,167.5,27.1,166.9,27.1L166.9,27.1z
		 M136.2,27.1h-26.6c-0.6,0-1.2,0.2-1.7,0.7c-0.5,0.5-0.7,1-0.7,1.7c0,0.6,0.2,1.2,0.7,1.7c0.5,0.5,1,0.7,1.7,0.7h10.9v34.5
		c0,0.6,0.2,1.2,0.7,1.7c0.4,0.4,1,0.7,1.7,0.7c0.6,0,1.2-0.2,1.7-0.7c0.5-0.5,0.7-1,0.7-1.7V31.9h10.9c0.7,0,1.2-0.3,1.7-0.7
		c0.4-0.5,0.7-1,0.7-1.7c0-0.6-0.2-1.2-0.7-1.7C137.4,27.3,136.8,27.1,136.2,27.1L136.2,27.1z M204.4,27.2c-0.5,0-1.1,0.2-1.8,1l0,0
		l0,0L191,44l-11.5-15.7c-0.3-0.5-0.9-0.9-1.6-1c-0.1,0-0.2,0-0.3,0c-0.5,0-1,0.2-1.4,0.5c-0.5,0.3-0.8,0.9-0.9,1.5
		c-0.1,0.7,0.1,1.3,0.5,1.8L188.1,48l-12.3,16.9c-0.5,0.6-0.7,1.2-0.6,1.7c0.1,0.6,0.4,1.1,1,1.6l0,0l0,0c0.5,0.3,1,0.4,1.6,0.4
		c0.4,0,1.2-0.1,1.7-1.1L191,52l11.5,15.7c0.6,0.9,1.3,1,1.8,1c0.5,0,1.1-0.2,1.5-0.5c0.5-0.4,0.9-0.9,1-1.5c0.1-0.7,0-1.3-0.5-1.8
		L194,48l12.3-16.9c0.4-0.5,0.6-1.2,0.5-1.9c-0.1-0.6-0.5-1.2-1-1.5C205.4,27.4,204.9,27.2,204.4,27.2L204.4,27.2z"/>
	<g id="logomark">
		<path fill="#FFA200" d="M43.4,6.8l0.5,8.7c0.5,0,0.9,0.1,1.3,0.3l15.3,7.4l2.7-7l-18-8.8C44.6,7.1,44,7,43.4,6.8z"/>
		<polygon fill="#94C135" points="21,40.8 27.2,45.2 31.8,35.8 27,28.4"/>
		<path fill="#ACE744" d="M35.6,10.7L25.4,31.6l5.2,6.6l10.1-20.8c0.8-1.7,2.9-2.4,4.5-1.6l0.6,0.3l-0.2-8.5l-0.5-0.2
			C41.7,5.7,37.3,7.2,35.6,10.7z"/>
		<path fill="#E52100" d="M88.7,40.8l-6.1,12.5l9.1-1.4l5.4-11.1c0.9-1.9,0.9-3.9,0.2-5.7L89,39C89,39.5,89,40.2,88.7,40.8z"/>
		<path fill="#FFDA00" d="M93.8,31.1L61.7,15.5l-2.5,7.2l27.9,13.6c1.1,0.5,1.7,1.5,1.9,2.7l8.3-3.9C96.7,33.4,95.5,31.9,93.8,31.1z"
			/>
		<path fill="#DB2672" d="M76.1,83.6l-5.9-5l-1.9,4c-0.8,1.7-2.9,2.4-4.5,1.6l-3.3-1.6l6.2,10.7c2.8,0.1,5.5-1.4,6.7-4L76.1,83.6z"/>
		<polygon fill="#FF2600" points="92.4,50.3 83.2,52 69.6,79.8 75.4,85.2"/>
		<polygon fill="#0095B2" points="37.9,71.5 27.7,66.6 18.4,70.4 33.5,77.8"/>
		<path fill="#FF2E8A" d="M70.1,92.5l-5.7-8.1c-0.2-0.1-0.5-0.1-0.7-0.2L36.7,71l-4.9,6l31.9,15.6C65.9,93.6,68.2,93.5,70.1,92.5z"/>
		<path fill="#00B3D6" d="M28.8,67.1l-6.9-3.4c-1.7-0.8-2.4-2.9-1.6-4.5l8-16.5l-5.8-5.1L11.9,59.3c-1.7,3.5-0.2,7.9,3.3,9.6l4.9,2.4
			L28.8,67.1z"/>
	</g>
</svg>
